<?xml version="1.0" standalone="no"?>
<!DOCTYPE svg PUBLIC "-//W3C//DTD SVG 20010904//EN"
 "http://www.w3.org/TR/2001/REC-SVG-20010904/DTD/svg10.dtd">
<svg version="1.0" xmlns="http://www.w3.org/2000/svg"
 width="1280.000000pt" height="640.000000pt" viewBox="0 0 1280.000000 640.000000"
 preserveAspectRatio="xMidYMid meet">
<g transform="translate(0.000000,640.000000) scale(0.100000,-0.100000)"
fill="#000000" stroke="none">
<path d="M9710 6073 c-831 -85 -1566 -459 -2450 -1247 -74 -66 -293 -277 -486
-468 -259 -258 -357 -348 -374 -348 -17 0 -116 92 -379 353 -196 193 -421 411
-501 483 -833 753 -1474 1097 -2240 1206 -62 8 -193 13 -380 12 -244 0 -304
-3 -419 -22 -520 -85 -982 -287 -1384 -604 -133 -105 -392 -366 -488 -493
-313 -411 -503 -860 -568 -1340 -45 -326 -50 -433 -31 -577 5 -40 14 -125 21
-188 28 -289 108 -609 220 -875 197 -474 546 -899 969 -1180 733 -488 1669
-594 2597 -294 503 162 993 457 1535 921 205 176 382 342 719 675 226 225 312
303 329 303 18 0 116 -91 384 -358 482 -478 734 -703 1051 -940 271 -203 471
-327 710 -443 328 -158 602 -243 960 -295 92 -14 183 -18 390 -18 310 0 441
16 708 83 1155 292 2016 1257 2162 2421 8 69 20 161 25 205 13 102 13 238 0
340 -5 44 -17 139 -25 210 -67 565 -294 1123 -622 1530 -415 515 -1083 855
-1847 940 -118 13 -486 18 -586 8z m-6528 -1168 c508 -67 999 -337 1583 -870
133 -121 837 -804 848 -822 4 -7 4 -20 -1 -29 -18 -32 -612 -620 -767 -759
-726 -652 -1337 -945 -1967 -945 -660 0 -1209 339 -1478 913 -122 261 -189
594 -177 880 15 330 129 661 325 937 85 121 270 306 392 393 160 114 395 221
599 272 176 45 440 57 643 30z m6948 4 c517 -64 937 -330 1194 -756 188 -313
285 -758 245 -1121 -75 -682 -535 -1258 -1172 -1467 -199 -65 -304 -80 -552
-80 -257 0 -353 15 -589 92 -398 131 -811 405 -1311 870 -254 237 -760 735
-763 752 -6 34 597 632 891 884 577 495 1073 752 1582 820 132 18 359 21 475
6z"/>
</g>
</svg>
